<svg height='100px' width='100px'  fill="#000000" xmlns="http://www.w3.org/2000/svg" data-name="Layer 1" viewBox="0 0 100 100" x="0px" y="0px"><title>growler-beer-jug-ale</title><path d="M71,30.25A9.5,9.5,0,1,0,59.62,15.07l-.48-2.84a2,2,0,0,0-2-1.67H42.93a2,2,0,0,0-2,1.65l-1.57,9a8,8,0,0,1-4.73,6l-2,.86a17,17,0,0,0-10.3,15.63v38a7.75,7.75,0,0,0,7.75,7.75H69.91a7.75,7.75,0,0,0,7.75-7.75v-38A17,17,0,0,0,71,30.25ZM65.32,17.16A5.5,5.5,0,0,1,67,27.91l-1.58-.68a8,8,0,0,1-4.73-6l-.19-1.1A5.46,5.46,0,0,1,65.32,17.16Zm-31.1,14.6,2-.87a12,12,0,0,0,7.1-9l1.27-7.36H55.48l1.22,7.3a12,12,0,0,0,7.11,9.05l2,.85a13,13,0,0,1,6.71,6.57h-45A13,13,0,0,1,34.22,31.76Zm39.44,12V76.78H26.34V43.71a13.09,13.09,0,0,1,.76-4.38H72.9A13.09,13.09,0,0,1,73.66,43.71ZM69.91,85.44H30.09a3.75,3.75,0,0,1-3.75-3.75V77.78H73.66v3.91A3.75,3.75,0,0,1,69.91,85.44Z"></path></svg>