<svg height='100px' width='100px'  fill="#000000" xmlns="http://www.w3.org/2000/svg" data-name="Слой 1" viewBox="0 0 128 128" x="0px" y="0px"><title>Barrel, beer, keg, fuel, oil</title><path d="M6,60a2,2,0,0,1-2-2V14a2,2,0,0,1,4,0V58A2,2,0,0,1,6,60Z"></path><path d="M6,116a2,2,0,0,1-2-2V71a2,2,0,0,1,4,0v43A2,2,0,0,1,6,116Z"></path><path d="M122,116a2,2,0,0,1-2-2V70a2,2,0,0,1,4,0v44A2,2,0,0,1,122,116Z"></path><path d="M122,60a2,2,0,0,1-2-2V14a2,2,0,0,1,4,0V58A2,2,0,0,1,122,60Z"></path><path d="M120,72H8A8,8,0,0,1,8,56H120a8,8,0,0,1,0,16ZM8,60a4,4,0,0,0,0,8H120a4,4,0,0,0,0-8Z"></path><path d="M120,16H8A8,8,0,0,1,8,0H120a8,8,0,0,1,0,16ZM8,4a4,4,0,0,0,0,8H120a4,4,0,0,0,0-8Z"></path><path d="M120,128H8a8,8,0,0,1,0-16H120a8,8,0,0,1,0,16ZM8,116a4,4,0,0,0,0,8H120a4,4,0,0,0,0-8Z"></path><path d="M84,36H44a8,8,0,0,1,0-16H84a8,8,0,0,1,0,16ZM44,24a4,4,0,0,0,0,8H84a4,4,0,0,0,0-8Z"></path></svg>