<svg height='100px' width='100px'  fill="#000000" xmlns="http://www.w3.org/2000/svg" xmlns:xlink="http://www.w3.org/1999/xlink" version="1.1" x="0px" y="0px" viewBox="0 0 100 100" enable-background="new 0 0 100 100" xml:space="preserve"><g><path fill="#000000" d="M60.5,67.852c0-3.519,0.828-6.498,1.976-10.623C64.675,49.316,68,37.357,68,10.492   c0-0.266-0.105-0.52-0.293-0.707S67.266,9.492,67,9.492L32.875,9.508c-0.552,0-1,0.448-1,1c0,26.865,3.325,38.83,5.525,46.748   c1.146,4.127,1.975,7.108,1.975,10.627c0,6.537-1.292,10.002-2.329,12.786c-0.628,1.687-1.171,3.143-1.171,4.776   c0,4.263,9.614,5.206,13.906,5.305c0.031,0.003,0.062,0.25,0.094,0.25H50v-0.494c4.245-0.091,14-0.767,14-5.061   c0-1.634-0.543-3.094-1.171-4.785C61.792,77.866,60.5,74.389,60.5,67.852z M39.327,56.721c-2.144-7.715-5.369-19.324-5.45-45.213   l32.122-0.016c-0.081,25.89-3.307,37.491-5.45,45.201C59.404,60.809,58.5,64.06,58.5,67.852c0,5.74,0.982,9.345,1.909,12.002   c-2.849,1.244-8.335,1.615-10.473,1.653c-2.158-0.038-7.623-0.408-10.467-1.65c0.926-2.647,1.905-6.242,1.905-11.974   C41.375,64.091,40.471,60.839,39.327,56.721z M49.938,88.507c-6.653-0.14-12.062-1.512-12.062-3.062   c0-1.169,0.396-2.319,0.911-3.71c3.614,1.512,9.773,1.984,10.997,2.015c0.031,0.003,0.062,0.25,0.093,0.25H50   c0.031,0,0.062-0.247,0.093-0.25c1.226-0.03,7.394-0.382,10.998-1.896C61.606,83.248,62,84.339,62,85.507   C62,87.057,56.591,88.367,49.938,88.507z"></path></g></svg>