<svg height='100px' width='100px'  fill="#000000" xmlns="http://www.w3.org/2000/svg" xmlns:xlink="http://www.w3.org/1999/xlink" version="1.1" x="0px" y="0px" viewBox="0 0 100 100" enable-background="new 0 0 100 100" xml:space="preserve"><g><path fill="#000000" d="M71.417,10c-0.823,0-40.817,0-42,0S27.955,10.463,28,11.083s6.038,70.396,6.109,73.167   c0.104,4.016,2.375,5.094,4.174,5.297C40.871,89.84,45.082,90,49.745,90c0,0,0.027,0,0.027,0c5.044,0,9.787-0.188,12.66-0.512   c1.801-0.203,3.975-1.269,4.076-5.213c0.072-2.772,5.645-72.6,5.709-73.195S72.24,10,71.417,10z M70.291,12   c-1.066,8.956-7.707,64.777-7.775,67.051c-0.061,1.99-0.955,2.45-2.277,2.578c-2.73,0.262-6.127,0.357-9.635,0.369   c-0.277,0-0.552,0.002-0.832,0.002c-3.456-0.001-6.627-0.069-9.175-0.313c-1.543-0.148-2.224-0.891-2.277-2.633   C38.25,76.78,31.609,20.952,30.543,12H70.291z M62.221,87.508c-2.804,0.317-7.447,0.507-12.423,0.507   c-4.592,0-8.668-0.163-11.185-0.448c-1.031-0.116-2.223-0.604-2.294-3.367c-0.004-0.174-0.03-0.595-0.074-1.225   c0.596,0.375,1.311,0.621,2.161,0.703C40.96,83.923,45.072,84,49.688,84c0.001,0,0,0,0.001,0c0.028,0,0.055,0,0.083,0   c0.027,0,0.054,0,0.081,0h0.001c0.236,0,0.47-0.002,0.705-0.002c4.745-0.012,9.135-0.117,11.869-0.379   c0.856-0.082,1.57-0.315,2.164-0.671c-0.046,0.659-0.073,1.103-0.077,1.28C64.445,86.898,63.316,87.385,62.221,87.508z"></path></g></svg>