<svg height='100px' width='100px'  fill="#000000" xmlns="http://www.w3.org/2000/svg" data-name="Слой 1" viewBox="0 0 128 128" x="0px" y="0px"><title>tulip, beer glass, craft beer, Belgian Beer, Lambic, Booze, Amber ,Alcohol, Saison</title><path d="M94.49,128h-61a2,2,0,0,1-2-2,5.08,5.08,0,0,1,1.6-3.45c1.71-1.71,5.25-2.94,9-4.25a54.46,54.46,0,0,0,5.74-2.23c5.41-2.71,8-7.11,8-13.46,0-7.36-8.07-14.27-14.55-19.83-9.34-8-18-17.67-18-34,0-12.58,4.73-24.57,7.56-31.74.7-1.77,1.3-3.3,1.69-4.47a22.24,22.24,0,0,0,1-10.16,2,2,0,0,1,2-2.39H92.46a2,2,0,0,1,2,2.39,22.24,22.24,0,0,0,1,10.16c.39,1.17,1,2.7,1.69,4.47,2.83,7.17,7.56,19.16,7.56,31.74,0,16.38-8.64,26-18,34C80.17,88.35,72.1,95.27,72.1,102.62c0,6.35,2.63,10.75,8,13.46a54.34,54.34,0,0,0,5.74,2.23c3.75,1.31,7.3,2.54,9,4.25a5.08,5.08,0,0,1,1.6,3.45A2,2,0,0,1,94.49,128Zm-56.17-4H89.68c-1.51-.67-3.43-1.33-5.11-1.92a56.64,56.64,0,0,1-6.22-2.43c-6.8-3.4-10.25-9.13-10.25-17,0-9.2,8.84-16.77,15.94-22.86,8.61-7.38,16.58-16.25,16.58-31,0-11.82-4.38-22.92-7.28-30.27-.72-1.82-1.34-3.4-1.76-4.67A27,27,0,0,1,90.24,4H37.76a27,27,0,0,1-1.34,9.81c-.42,1.27-1,2.84-1.76,4.67-2.9,7.35-7.28,18.45-7.28,30.27,0,14.76,8,23.62,16.58,31,7.1,6.09,15.94,13.67,15.94,22.86,0,7.9-3.45,13.63-10.25,17a56.75,56.75,0,0,1-6.22,2.42C41.75,122.67,39.84,123.33,38.32,124Z"></path><path d="M94,20H33a2,2,0,0,1,0-4H94a2,2,0,0,1,0,4Z"></path></svg>